<?xml version="1.0" standalone="no"?>
<!DOCTYPE svg PUBLIC "-//W3C//DTD SVG 20010904//EN"
 "http://www.w3.org/TR/2001/REC-SVG-20010904/DTD/svg10.dtd">
<svg version="1.0" xmlns="http://www.w3.org/2000/svg"
 width="225.000000pt" height="225.000000pt" viewBox="0 0 225.000000 225.000000"
 preserveAspectRatio="xMidYMid meet">

<g transform="translate(0.000000,225.000000) scale(0.100000,-0.100000)"
fill="#000000" stroke="none">
<path d="M1117 1993 c-10 -13 -23 -21 -28 -17 -6 3 -7 -4 -3 -21 4 -18 1 -32
-12 -48 -19 -22 -19 -22 7 1 30 26 75 29 103 5 19 -18 19 -18 3 6 -12 18 -14
29 -6 44 7 13 7 17 1 13 -6 -3 -19 4 -29 17 l-18 24 -18 -24z"/>
<path d="M894 1875 l-32 -21 48 -27 c47 -26 51 -27 225 -27 172 0 178 1 220
26 l44 26 -26 23 c-22 18 -31 21 -50 12 -17 -7 -27 -6 -40 4 -16 13 -17 12 -4
-3 12 -16 10 -18 -20 -19 -35 -2 -57 -2 -120 2 -20 1 -46 -2 -57 -6 -12 -3
-22 -2 -22 2 0 5 -15 7 -33 5 -18 -2 -49 3 -68 10 -31 13 -37 13 -65 -7z"/>
<path d="M850 1600 c0 -93 -4 -170 -8 -170 -5 0 -21 -19 -36 -42 -22 -33 -23
-39 -7 -24 11 10 23 27 26 37 4 11 14 19 23 19 12 0 13 -3 4 -12 -13 -13 -17
-72 -4 -64 10 6 2 -76 -10 -91 -7 -8 -3 -10 14 -6 18 5 21 3 11 -7 -6 -7 -9
-19 -6 -26 3 -8 0 -14 -6 -14 -6 0 -11 -7 -11 -15 0 -8 -5 -15 -10 -15 -6 0
-13 7 -16 15 -4 8 -13 15 -21 15 -11 0 -7 -6 10 -20 28 -22 47 -26 47 -8 0 6
13 -7 29 -28 39 -54 86 -96 151 -136 99 -61 99 -61 171 -21 81 45 141 93 176
143 16 23 34 38 41 35 8 -3 25 4 39 15 14 11 21 20 16 20 -6 0 -16 -7 -23 -15
-17 -21 -23 -19 -37 10 -8 19 -8 25 0 25 8 0 9 3 1 8 -6 4 -8 37 -5 87 3 60 6
73 12 50 l7 -30 1 29 c1 17 -6 34 -16 42 -11 8 -13 13 -5 14 7 0 32 -19 56
-42 23 -24 50 -49 59 -56 10 -7 17 -20 17 -28 0 -12 -7 -14 -30 -9 -17 4 -30
2 -30 -3 0 -5 6 -9 14 -8 26 2 20 -19 -8 -29 -19 -6 -33 -6 -46 3 -28 17 -38
15 -14 -3 30 -22 60 -18 98 16 19 16 41 29 48 28 28 -3 38 2 38 19 0 10 -3 13
-8 7 -9 -14 -55 -17 -47 -4 4 5 1 9 -6 9 -8 0 -8 5 2 18 11 14 11 15 -1 5 -18
-17 -45 -2 -97 54 l-43 45 0 164 0 164 -280 0 -280 0 0 -170z m332 110 c-55
-22 -61 -112 -12 -180 l21 -30 -28 11 c-43 16 -93 49 -93 62 0 7 -7 3 -16 -8
-8 -11 -13 -29 -10 -40 4 -17 2 -17 -15 5 -28 33 -19 70 28 122 41 44 84 67
123 67 l25 0 -23 -9z m13 -52 c0 -36 3 -43 18 -41 13 1 24 -11 33 -34 13 -31
13 -38 -1 -59 -20 -31 -28 -30 -58 6 -42 50 -46 111 -9 153 8 9 16 17 16 17 1
0 1 -19 1 -42z m-225 13 c0 -22 -35 -69 -44 -60 -4 4 -11 21 -16 38 -8 28 -7
31 5 21 8 -7 15 -22 16 -34 0 -14 2 -16 6 -6 7 22 26 60 30 60 2 0 3 -9 3 -19z
m350 -35 c-1 -19 -2 -19 -15 4 -20 35 -19 62 0 36 8 -11 15 -29 15 -40z m29
-2 c-6 -16 -13 -24 -16 -18 -2 6 2 24 8 40 6 16 13 24 16 18 2 -6 -2 -24 -8
-40z m-383 -104 c-1 -70 -5 -94 -18 -107 -21 -20 -26 -16 -38 26 -8 28 -7 31
5 21 8 -7 16 -22 16 -34 1 -20 2 -20 6 -1 3 11 9 24 14 30 15 15 10 23 -11 18
-11 -3 -20 -4 -20 -2 0 2 -4 19 -9 37 -6 20 -6 30 0 27 11 -8 11 -7 -1 33 -7
28 -7 32 4 23 15 -13 28 -61 16 -61 -4 0 -5 -12 -2 -26 l5 -26 13 32 c17 39
17 43 4 35 -5 -3 -10 -2 -10 4 0 10 21 61 26 61 1 0 1 -40 0 -90z m349 60 c7
-23 25 -27 25 -6 0 8 4 17 9 20 13 9 7 -102 -7 -116 -9 -9 -12 -9 -12 1 0 7
-4 10 -9 7 -4 -3 -13 6 -20 20 -14 31 -14 47 -1 39 12 -8 13 -3 0 29 -5 15 -6
26 0 26 5 0 12 -9 15 -20z m-122 -111 c43 -11 45 -17 17 -47 -11 -12 -20 -26
-20 -32 0 -5 -13 -10 -30 -10 -39 0 -42 29 -2 31 l27 2 -27 4 c-23 4 -28 9
-28 34 0 32 7 34 63 18z m127 -43 c-1 -17 -2 -18 -9 -6 -5 8 -12 26 -15 40 -7
24 -6 24 8 6 9 -11 16 -29 16 -40z m29 -2 c-6 -16 -13 -24 -16 -18 -2 6 2 24
8 40 6 16 13 24 16 18 2 -6 -2 -24 -8 -40z m-381 -88 c1 -76 -16 -102 -42 -64
-9 12 -16 26 -16 31 0 14 21 -4 30 -27 8 -20 9 -19 9 6 1 14 4 35 8 45 6 15 5
16 -9 5 -17 -14 -22 -10 -37 32 -7 16 -7 26 -1 26 5 0 13 -12 16 -26 l7 -26
13 31 c7 17 15 31 17 31 2 0 5 -29 5 -64z m347 44 c4 -11 4 -33 1 -48 -7 -32
7 -64 17 -38 4 9 11 16 17 16 6 0 3 -14 -6 -32 -10 -18 -19 -27 -21 -20 -3 6
-9 9 -14 6 -6 -3 -9 13 -8 43 1 26 -1 58 -5 71 -4 13 -3 22 3 22 5 0 13 -9 16
-20z m34 -36 c-9 -22 -13 -25 -16 -12 -5 19 18 69 24 52 2 -6 -2 -24 -8 -40z
m-492 14 c-3 -8 -6 -5 -6 6 -1 11 2 17 5 13 3 -3 4 -12 1 -19z m297 -23 c-9
-14 -18 -25 -20 -25 -2 0 -4 11 -4 25 0 18 5 25 20 25 20 0 20 -1 4 -25z
m-164 -115 c0 -65 -47 -65 -65 0 -6 23 -4 23 26 -9 24 -26 30 -29 24 -12 -6
20 1 61 11 61 2 0 4 -18 4 -40z m325 -2 c23 25 24 26 25 6 0 -11 -9 -29 -21
-40 -20 -18 -21 -18 -35 1 -15 20 -19 57 -6 69 4 4 8 -8 10 -28 l3 -36 24 28z
m-295 -68 c0 -34 -9 -60 -21 -60 -12 0 -49 38 -49 50 0 6 12 5 28 -4 l28 -14
-4 35 c-3 25 -1 34 7 29 6 -4 11 -20 11 -36z m244 13 c-3 -16 -7 -34 -10 -41
-2 -7 10 -2 26 10 38 27 51 16 20 -17 -27 -29 -45 -32 -54 -9 -8 21 3 84 15
84 5 0 7 -12 3 -27z m-176 -72 c28 -34 7 -42 -26 -11 -28 26 -31 60 -4 39 9
-7 23 -20 30 -28z m121 -7 c-26 -27 -39 -31 -39 -10 0 19 53 61 58 46 2 -6 -6
-22 -19 -36z m-170 -15 c35 -12 41 -29 10 -29 -25 0 -59 17 -59 30 0 13 10 13
49 -1z m226 -9 c-20 -22 -69 -28 -63 -8 4 12 37 25 67 27 11 1 10 -4 -4 -19z"/>
<path d="M1317 1553 c-8 -13 1 -43 14 -43 5 0 9 2 9 4 0 2 3 12 7 22 4 11 3
15 -4 11 -6 -4 -13 -2 -15 5 -3 9 -6 9 -11 1z"/>
<path d="M625 1529 c16 -5 33 -5 38 0 4 4 -9 8 -30 8 -38 1 -38 1 -8 -8z"/>
<path d="M1575 1520 c-10 -11 -13 -20 -8 -20 6 0 14 7 17 16 4 9 13 14 21 10
8 -3 15 -1 15 4 0 17 -26 11 -45 -10z"/>
<path d="M1638 1533 c6 -2 18 -2 25 0 6 3 1 5 -13 5 -14 0 -19 -2 -12 -5z"/>
<path d="M567 1524 c-3 -3 -3 -12 -1 -19 3 -7 1 -16 -5 -20 -6 -3 -11 -11 -11
-18 0 -6 6 -2 14 9 14 18 15 18 21 2 5 -14 11 -15 25 -8 12 7 20 6 23 0 3 -6
4 -5 3 2 -1 7 -9 13 -17 13 -22 0 -52 32 -36 38 7 3 7 6 1 6 -6 1 -13 -2 -17
-5z"/>
<path d="M680 1521 c0 -10 19 -25 25 -20 1 2 -3 10 -11 17 -8 7 -14 8 -14 3z"/>
<path d="M1685 1521 c8 -13 -23 -41 -39 -35 -7 3 -16 -2 -19 -10 -4 -9 -2 -16
3 -16 6 0 10 5 10 11 0 5 5 7 10 4 6 -4 17 -2 24 4 10 8 16 7 25 -3 15 -18 5
-59 -12 -49 -22 13 -56 12 -51 -2 3 -7 13 -12 23 -10 21 4 55 -20 47 -33 -7
-11 -24 -11 -43 1 -8 5 -13 3 -13 -4 0 -7 -3 -9 -7 -6 -9 9 -33 -12 -33 -29 0
-21 20 -17 20 4 1 15 2 15 15 -2 13 -18 15 -18 15 -3 0 31 37 1 42 -33 5 -36
-3 -38 -26 -7 -12 15 -15 16 -12 5 3 -10 1 -20 -4 -23 -9 -6 -14 8 -11 28 2
16 -19 6 -30 -14 -8 -15 -8 -24 0 -32 8 -8 11 -4 11 13 0 23 0 23 16 4 10 -13
17 -15 20 -7 4 8 11 9 22 4 9 -5 36 -18 58 -30 23 -11 55 -20 70 -20 27 1 27
2 -6 8 -72 15 -100 46 -100 112 0 21 5 29 18 30 10 0 12 3 5 6 -7 2 -13 22
-13 43 0 23 -7 45 -17 56 -13 13 -14 19 -5 22 14 4 7 22 -9 22 -6 0 -8 -4 -4
-9z"/>
<path d="M439 1483 c-11 -15 -11 -16 1 -5 8 6 25 11 40 11 23 -2 23 -2 3 -6
-23 -4 -53 -38 -53 -58 1 -5 8 2 16 18 15 27 54 38 54 15 0 -9 4 -8 10 2 7 11
10 7 11 -20 2 -32 2 -32 6 -7 8 54 -57 90 -88 50z"/>
<path d="M732 1484 c10 -10 20 -16 22 -13 3 3 -5 11 -17 18 -21 13 -21 12 -5
-5z"/>
<path d="M1513 1486 c-41 -20 -18 -59 29 -51 15 3 30 1 33 -5 3 -5 -2 -11 -12
-11 -10 -1 -25 -2 -33 -3 -26 -2 -24 -43 2 -49 12 -4 24 -4 27 -1 3 3 -5 7
-17 11 -32 8 -27 20 13 27 54 11 40 41 -19 41 -39 1 -43 16 -9 37 31 19 21 22
-14 4z"/>
<path d="M1754 1486 c-10 -8 -16 -18 -11 -22 4 -4 7 -2 7 4 0 7 5 12 11 12 5
0 8 -4 5 -9 -4 -5 4 -7 16 -3 21 5 21 6 2 14 -16 6 -15 7 6 5 14 -1 24 -7 23
-13 -1 -6 5 -11 13 -11 18 0 18 2 -2 21 -19 20 -44 20 -70 2z"/>
<path d="M658 1468 c9 -9 15 -9 24 0 9 9 7 12 -12 12 -19 0 -21 -3 -12 -12z"/>
<path d="M1585 1470 c3 -5 10 -10 16 -10 5 0 9 5 9 10 0 6 -7 10 -16 10 -8 0
-12 -4 -9 -10z"/>
<path d="M591 1443 c-1 -7 -1 -16 -1 -20 0 -5 9 -9 20 -9 11 -1 20 5 20 13 0
9 -6 13 -14 10 -8 -3 -17 -1 -20 6 -3 9 -5 9 -5 0z"/>
<path d="M684 1433 c-17 -17 -16 -18 24 -27 48 -10 54 -21 17 -30 -25 -6 -34
-29 -15 -41 6 -3 7 1 4 9 -4 11 2 19 20 26 14 5 26 14 26 19 0 11 -19 25 -35
27 -5 0 -16 2 -23 2 -7 1 -10 7 -7 12 4 6 11 8 16 5 5 -4 9 -1 9 4 0 16 -16
13 -36 -6z"/>
<path d="M740 1436 c7 -7 13 -7 20 0 6 6 3 10 -10 10 -13 0 -16 -4 -10 -10z"/>
<path d="M1747 1430 c-3 -13 -4 -26 -2 -29 3 -2 5 1 5 7 0 7 15 -5 34 -26 42
-45 38 -57 -6 -16 l-32 29 35 -42 c19 -24 39 -43 46 -43 6 0 19 -10 27 -22 9
-12 16 -18 16 -14 0 5 -7 18 -17 28 -9 10 -11 18 -6 18 15 0 33 -24 43 -57 7
-24 8 -25 9 -6 1 13 -12 37 -29 55 -16 18 -30 27 -30 21 0 -7 -7 -13 -17 -13
-14 0 -14 3 3 22 10 12 14 19 8 15 -13 -8 -59 39 -72 72 l-9 25 -6 -24z"/>
<path d="M1820 1445 c0 -5 5 -17 10 -25 5 -8 10 -10 10 -5 0 6 -5 17 -10 25
-5 8 -10 11 -10 5z"/>
<path d="M555 1419 c-4 -13 -13 -27 -19 -31 -7 -5 -4 -8 7 -8 19 0 21 -16 8
-72 l-9 -37 40 1 c30 0 38 4 34 15 -3 8 -6 19 -6 24 0 5 -5 9 -11 9 -6 0 -9
-8 -7 -18 4 -12 -1 -18 -13 -19 -26 -2 -20 46 9 65 15 10 22 11 22 3 0 -8 5
-7 15 3 21 21 19 23 -20 21 -39 -2 -53 9 -36 28 5 7 6 19 2 26 -7 10 -11 8
-16 -10z"/>
<path d="M397 1406 c-4 -9 -13 -13 -21 -10 -8 3 -17 0 -22 -7 -4 -8 -3 -10 4
-5 7 4 17 4 24 0 8 -5 6 -10 -8 -15 -15 -6 -13 -7 9 -6 26 1 56 31 44 44 -3 2
-8 -5 -12 -16 -3 -12 -11 -19 -16 -15 -6 4 -6 11 2 20 6 8 10 17 7 20 -3 3 -8
-2 -11 -10z"/>
<path d="M1869 1398 c7 -10 17 -15 22 -12 5 3 9 1 9 -5 0 -5 -5 -12 -10 -14
-6 -3 -5 -4 2 -3 7 1 15 11 17 21 2 12 -1 16 -12 12 -8 -3 -21 0 -28 6 -11 10
-11 9 0 -5z"/>
<path d="M473 1378 c-9 -10 -18 -25 -19 -33 -1 -8 -16 -26 -33 -41 -17 -14
-31 -32 -31 -40 0 -19 36 -36 68 -31 27 4 27 4 -3 6 -44 2 -63 16 -49 38 6 10
22 23 35 30 13 7 24 21 24 31 0 20 25 56 33 47 3 -2 -1 -12 -9 -22 -9 -11 -10
-14 -2 -9 7 4 17 15 22 25 14 25 -13 24 -36 -1z"/>
<path d="M1847 1380 c3 -11 9 -20 15 -20 5 0 4 9 -2 20 -6 11 -12 20 -14 20
-2 0 -2 -9 1 -20z"/>
<path d="M647 1358 c-3 -12 -2 -29 3 -38 5 -9 5 -22 1 -29 -6 -9 -10 -6 -14
10 -4 13 -9 20 -13 16 -3 -3 -3 -14 1 -24 5 -10 7 -22 6 -28 -1 -5 6 -2 16 6
26 23 70 23 82 0 6 -10 18 -22 27 -25 14 -6 15 -4 4 9 -11 14 -10 17 8 22 12
3 22 10 22 16 0 6 8 20 17 31 9 12 2 6 -16 -11 -17 -18 -38 -33 -46 -33 -24 0
-23 24 2 48 13 12 20 22 16 22 -5 0 -20 -11 -34 -24 -42 -39 -85 -19 -72 31 3
13 3 23 0 23 -2 0 -7 -10 -10 -22z"/>
<path d="M420 1347 c0 -8 -11 -24 -25 -37 -14 -13 -25 -28 -25 -33 0 -5 16 10
35 33 38 45 40 50 25 50 -5 0 -10 -6 -10 -13z"/>
<path d="M1458 1322 c9 -10 19 -17 21 -16 6 5 -20 34 -30 34 -5 0 -1 -8 9 -18z"/>
<path d="M506 1255 c-11 -8 -15 -15 -9 -15 6 0 16 7 23 15 16 19 11 19 -14 0z"/>
<path d="M370 1243 c0 -6 7 -16 15 -23 8 -7 16 -24 16 -39 2 -23 2 -24 6 -3 3
13 -4 33 -16 48 -12 15 -21 22 -21 17z"/>
<path d="M670 1238 c0 -3 6 -17 13 -30 11 -23 14 -24 42 -11 29 13 29 14 3 8
-20 -4 -31 0 -42 17 -9 12 -16 20 -16 16z"/>
<path d="M788 1233 c6 -2 18 -2 25 0 6 3 1 5 -13 5 -14 0 -19 -2 -12 -5z"/>
<path d="M1582 1227 c-8 -9 -5 -19 9 -37 20 -24 20 -24 9 -2 -6 13 -9 30 -6
38 7 17 2 18 -12 1z"/>
<path d="M1869 1213 c-13 -16 -12 -17 4 -4 16 13 21 21 13 21 -2 0 -10 -8 -17
-17z"/>
<path d="M1540 1197 c14 -8 27 -12 30 -10 7 6 -23 23 -40 23 -8 0 -4 -6 10
-13z"/>
<path d="M658 1184 c-9 -10 -34 -20 -55 -24 l-38 -6 30 -5 c24 -4 37 1 60 23
17 15 28 28 25 28 -3 0 -13 -7 -22 -16z"/>
<path d="M1630 1160 c8 -5 28 -10 44 -10 39 0 30 6 -19 13 -27 4 -35 3 -25 -3z"/>
<path d="M1838 1135 c-22 -29 -23 -54 -2 -62 8 -3 13 -12 10 -20 -3 -8 -1 -11
4 -8 15 10 12 35 -5 35 -20 0 -19 29 2 52 9 10 14 20 12 22 -2 2 -12 -6 -21
-19z"/>
<path d="M416 1136 c3 -8 13 -17 22 -21 13 -5 13 -2 -3 15 -21 24 -26 25 -19
6z"/>
<path d="M1716 1135 c4 -8 8 -15 10 -15 2 0 4 7 4 15 0 8 -4 15 -10 15 -5 0
-7 -7 -4 -15z"/>
<path d="M1625 1119 c-4 -11 -21 -29 -38 -40 -18 -10 -26 -19 -19 -19 16 0 72
54 72 69 0 18 -8 13 -15 -10z"/>
<path d="M531 1113 c-1 -17 3 -21 16 -16 12 5 15 2 10 -9 -3 -9 0 -19 7 -21 9
-4 11 2 8 19 -2 13 -10 24 -17 24 -7 0 -16 6 -18 13 -3 6 -6 2 -6 -10z"/>
<path d="M630 1123 c0 -14 57 -63 73 -63 7 0 -2 9 -20 19 -17 11 -36 28 -42
38 -6 10 -11 13 -11 6z"/>
<path d="M1695 1100 c-3 -5 -3 -14 0 -20 3 -5 1 -10 -6 -10 -7 0 -10 -3 -6 -6
3 -3 14 -1 24 5 10 6 12 11 6 11 -15 0 -18 20 -4 20 5 0 23 -14 40 -31 35 -34
40 -74 14 -96 -16 -13 -16 -13 5 -3 35 17 29 63 -13 105 -36 36 -50 42 -60 25z"/>
<path d="M418 1083 c-23 -6 -23 -16 3 -44 l20 -24 -17 28 c-15 25 -15 27 0 27
9 0 16 5 16 10 0 6 -1 9 -2 9 -2 -1 -11 -3 -20 -6z"/>
<path d="M615 1053 c11 -3 26 -10 33 -15 8 -7 12 -7 12 0 0 12 -25 22 -48 21
-13 -1 -12 -3 3 -6z"/>
<path d="M1528 1053 c7 -3 16 -2 19 1 4 3 -2 6 -13 5 -11 0 -14 -3 -6 -6z"/>
<path d="M1610 1045 c-6 -8 -9 -19 -6 -24 4 -5 1 -13 -5 -17 -6 -3 -15 -1 -19
6 -4 7 -12 10 -18 6 -14 -8 -63 19 -54 30 4 5 -2 2 -13 -7 -11 -8 -40 -21 -65
-28 -25 -7 -85 -31 -135 -54 -81 -37 -98 -41 -165 -41 -64 1 -86 6 -150 36
-41 20 -102 44 -135 54 -33 10 -64 24 -68 31 -4 7 -13 13 -20 13 -7 0 -6 -4 3
-10 12 -8 11 -10 -7 -10 -13 0 -23 -5 -23 -11 0 -6 -9 -9 -20 -6 -11 3 -20 1
-20 -4 0 -12 -27 -12 -32 0 -2 5 -13 5 -25 0 -19 -7 -21 -12 -13 -41 4 -18 11
-45 14 -60 3 -14 14 -29 24 -31 16 -4 16 -5 -1 -6 -10 0 -20 6 -23 14 -3 8
-22 19 -42 26 -21 6 -46 21 -57 33 -11 12 -16 16 -11 9 8 -13 2 -17 -18 -14
-5 1 -13 -4 -17 -10 -6 -10 -11 -10 -22 0 -10 8 -17 9 -22 1 -13 -21 -27 -10
-20 17 10 40 -1 25 -18 -25 -16 -46 -11 -56 27 -46 21 5 26 2 31 -18 5 -20 11
-23 38 -20 19 2 61 -7 101 -22 78 -30 95 -31 120 -13 14 10 18 26 18 62 -1 26
-4 50 -7 53 -3 3 -24 1 -46 -5 -30 -8 -38 -8 -29 1 16 15 117 11 165 -7 254
-97 355 -100 558 -21 49 20 113 37 141 39 28 3 42 2 31 -1 -25 -8 -35 -22 -35
-52 0 -19 3 -21 19 -12 11 5 28 10 38 9 10 0 2 -5 -17 -12 -45 -15 -50 -40
-12 -56 32 -13 63 -8 129 21 24 11 60 18 84 16 40 -2 40 -3 35 -34 -6 -28 5
-44 29 -44 2 0 11 21 21 46 15 39 15 47 3 55 -11 7 -11 9 4 9 9 0 17 4 17 9 0
23 -14 41 -30 41 -10 0 -20 6 -23 13 -3 9 -7 9 -19 -1 -11 -8 -18 -9 -22 -3
-4 6 -13 8 -20 5 -8 -3 -16 2 -19 13 -4 15 -5 15 -6 1 -1 -10 -19 -23 -45 -33
-25 -10 -47 -23 -50 -31 -3 -8 -13 -14 -23 -13 -16 0 -15 1 2 8 18 7 17 9 -10
24 -17 9 -26 16 -22 17 5 0 17 -5 27 -10 17 -9 20 -6 25 27 4 21 9 45 11 54 3
11 -3 19 -17 22 -29 8 -19 31 17 38 29 7 29 7 3 8 -15 0 -32 -6 -39 -14z
m-863 -73 c1 -10 -4 -19 -12 -19 -10 0 -12 13 -6 35 4 10 17 -2 18 -16z m770
-2 c-6 -8 -12 -16 -13 -18 -1 -1 -4 6 -7 17 -3 14 0 19 14 18 14 -1 16 -4 6
-17z m53 0 c0 -15 -6 -20 -27 -19 -16 1 -21 3 -11 6 10 2 15 10 11 19 -3 8 1
14 11 14 9 0 16 -8 16 -20z m-900 -11 c0 -11 -4 -17 -10 -14 -5 3 -10 13 -10
21 0 8 5 14 10 14 6 0 10 -9 10 -21z m40 15 c0 -14 -14 -33 -21 -28 -15 9 -10
31 6 31 8 0 15 -1 15 -3z m83 -14 c3 -11 1 -20 -4 -20 -5 0 -9 5 -9 11 0 5 -4
7 -10 4 -6 -3 -7 1 -4 9 8 22 21 20 27 -4z m672 1 c0 -8 -6 -16 -14 -19 -8 -3
-11 0 -7 7 4 6 2 11 -3 11 -6 0 -11 5 -11 11 0 6 8 9 18 7 9 -2 17 -10 17 -17z
m151 7 c4 -7 3 -8 -4 -4 -7 4 -12 1 -12 -8 0 -9 -4 -16 -9 -16 -6 0 -9 9 -8
20 1 22 22 27 33 8z m-754 -11 c11 -9 14 -18 7 -28 -7 -12 -9 -11 -9 3 0 9 -4
20 -10 23 -5 3 -7 0 -4 -8 3 -8 -2 -14 -11 -14 -17 0 -17 0 -9 21 7 19 14 19
36 3z m568 -17 c0 -3 -7 -7 -15 -7 -8 0 -15 9 -15 20 0 16 3 17 15 7 8 -7 15
-16 15 -20z m-52 -7 c2 -26 1 -26 -12 -8 -13 18 -11 25 9 35 0 0 2 -12 3 -27z
m-462 -19 c-4 -9 -9 -15 -11 -12 -3 3 -3 13 1 22 4 9 9 15 11 12 3 -3 3 -13
-1 -22z m432 4 c4 -19 -60 -38 -66 -19 -6 19 -22 12 -23 -11 -1 -17 -2 -19 -6
-5 -6 23 -19 22 -26 -4 -6 -23 -30 -21 -35 2 -2 9 16 19 52 30 31 9 54 12 53
6 -1 -5 4 -12 12 -15 10 -3 12 0 8 11 -3 8 -3 18 1 21 9 10 27 1 30 -16z
m-399 -5 c-10 -11 -10 -14 -1 -9 6 4 12 2 12 -3 0 -6 -7 -11 -15 -11 -8 0 -15
9 -15 20 0 12 7 20 16 20 14 0 15 -2 3 -17z m41 -4 c0 -5 5 -7 11 -3 7 4 10 1
7 -6 -7 -21 -34 -20 -35 1 -1 11 2 19 8 19 5 0 9 -5 9 -11z m50 -19 c0 -11 -4
-20 -8 -20 -4 0 -8 9 -8 20 0 11 4 20 8 20 4 0 8 -9 8 -20z m33 -10 c-3 -11
-7 -20 -8 -20 -1 0 -5 9 -8 20 -3 12 0 20 8 20 8 0 11 -8 8 -20z m46 -19 c-3
-6 -10 -7 -18 -2 -7 5 -10 14 -6 21 9 14 29 -2 24 -19z m61 25 c0 -2 -3 -11
-6 -20 -9 -23 -24 -20 -24 4 0 11 7 20 15 20 8 0 15 -2 15 -4z m644 -13 c-5
-5 -12 -12 -16 -18 -4 -6 -8 -2 -8 8 0 9 7 17 17 17 9 0 12 -3 7 -7z m-1094
-13 c11 -8 7 -9 -15 -4 -37 8 -45 14 -19 14 10 0 26 -5 34 -10z"/>
<path d="M1205 880 c3 -5 8 -10 11 -10 2 0 4 5 4 10 0 6 -5 10 -11 10 -5 0 -7
-4 -4 -10z"/>
<path d="M1833 995 c0 -22 2 -30 4 -17 2 12 2 30 0 40 -3 9 -5 -1 -4 -23z"/>
<path d="M419 863 c-16 -4 -16 -8 -1 -54 16 -49 31 -60 49 -36 7 8 7 25 -1 51
-12 40 -19 47 -47 39z"/>
<path d="M1051 774 c0 -11 3 -14 6 -6 3 7 2 16 -1 19 -3 4 -6 -2 -5 -13z"/>
<path d="M693 703 c-12 -2 -34 -18 -48 -34 -33 -40 -33 -88 -1 -126 21 -24 32
-28 75 -28 62 0 90 24 98 82 4 34 1 45 -23 71 -30 31 -62 42 -101 35z m55 -25
c43 -55 5 -181 -46 -149 -19 12 -33 65 -27 101 8 42 21 60 45 60 10 0 22 -6
28 -12z"/>
<path d="M1520 699 c-85 -34 -91 -145 -11 -179 71 -29 141 17 141 92 0 41 -34
88 -64 88 -8 0 -20 2 -28 4 -7 3 -24 0 -38 -5z m66 -34 c21 -33 14 -113 -12
-132 -15 -11 -21 -11 -38 1 -24 16 -34 102 -16 136 15 28 46 25 66 -5z"/>
<path d="M363 689 c14 -8 17 -24 17 -84 0 -62 -3 -74 -17 -78 -10 -3 7 -5 37
-5 30 0 49 2 43 5 -7 2 -13 20 -13 39 0 32 2 34 35 34 33 0 35 -2 35 -34 0
-19 -6 -37 -12 -39 -7 -3 12 -5 42 -5 30 0 47 2 38 5 -26 7 -26 147 0 162 13
8 4 10 -37 11 -43 0 -52 -3 -43 -12 7 -7 12 -25 12 -40 0 -25 -3 -28 -35 -28
-32 0 -35 3 -35 28 0 15 5 33 12 40 9 9 0 12 -42 12 -42 -1 -51 -3 -37 -11z"/>
<path d="M873 689 c14 -8 17 -24 17 -84 0 -62 -3 -74 -17 -78 -10 -3 7 -5 37
-5 30 0 49 2 43 5 -7 2 -13 21 -13 41 l0 36 31 -42 c27 -37 36 -42 67 -41 21
0 32 3 25 5 -6 3 -24 21 -38 40 l-27 35 21 20 c50 47 15 79 -87 79 -57 -1 -73
-3 -59 -11z m101 -14 c15 -16 11 -44 -8 -57 -21 -14 -26 -8 -26 32 0 43 9 49
34 25z"/>
<path d="M1113 689 c13 -8 17 -24 17 -79 0 -55 -4 -71 -17 -79 -14 -8 -5 -10
37 -10 42 0 51 2 38 10 -14 8 -18 24 -18 79 0 55 4 71 18 79 13 8 4 10 -38 10
-42 0 -51 -2 -37 -10z"/>
<path d="M1250 668 l1 -33 20 28 c14 19 30 27 50 27 16 0 29 -2 29 -6 0 -3
-25 -39 -55 -79 -30 -41 -55 -77 -55 -80 0 -3 38 -5 84 -5 83 0 84 0 89 28 5
27 -2 47 -10 26 -12 -34 -30 -45 -66 -42 l-37 3 55 75 c30 41 55 78 55 83 0 4
-36 7 -80 7 l-80 0 0 -32z"/>
<path d="M1703 686 c13 -10 17 -28 17 -79 0 -52 -4 -68 -17 -76 -14 -8 -9 -10
26 -11 39 0 43 2 27 13 -13 10 -17 24 -14 62 l3 50 54 -68 c30 -37 60 -66 65
-64 6 2 12 39 14 83 2 60 7 82 19 92 14 10 10 12 -27 12 -41 0 -42 -1 -27 -18
17 -18 24 -92 10 -92 -5 0 -26 25 -48 55 -37 50 -43 54 -80 54 -35 0 -38 -1
-22 -13z"/>
<path d="M401 456 c-73 -40 -63 -153 14 -175 43 -12 91 2 106 30 13 25 5 24
-31 -2 -28 -21 -30 -21 -54 -5 -26 16 -31 37 -26 96 4 56 55 68 89 23 l20 -28
1 31 c0 27 -4 32 -31 38 -44 9 -61 7 -88 -8z"/>
<path d="M676 438 c-49 -115 -59 -134 -73 -145 -14 -11 -10 -13 27 -13 38 0
42 2 26 13 -11 8 -15 19 -10 30 8 22 69 24 78 1 10 -25 7 -32 -11 -37 -10 -3
9 -5 41 -6 50 -1 57 1 43 12 -9 6 -32 48 -50 91 -19 44 -39 82 -45 84 -7 2
-19 -11 -26 -30z m22 -72 c-2 -8 -10 -11 -19 -7 -13 5 -15 11 -7 31 8 23 10
23 19 7 6 -10 9 -24 7 -31z"/>
<path d="M1772 454 c-22 -15 -29 -48 -14 -71 4 -6 29 -21 55 -32 50 -22 56
-31 32 -51 -21 -18 -57 -5 -77 27 l-17 28 -1 -36 0 -36 58 -2 c47 -1 62 2 76
18 30 33 17 63 -39 92 -54 27 -65 52 -25 57 17 3 31 -4 47 -25 l23 -28 0 31
c0 27 -4 32 -31 38 -47 9 -62 8 -87 -10z"/>
<path d="M883 449 c13 -8 17 -24 17 -79 0 -55 -4 -71 -17 -79 -14 -8 -8 -10
27 -10 35 0 41 2 28 10 -14 8 -18 23 -17 72 l0 62 27 -73 c15 -39 31 -71 36
-69 5 2 21 34 37 72 l28 70 0 -67 c1 -55 -2 -67 -16 -71 -10 -3 9 -5 42 -6 45
0 56 2 43 10 -15 8 -18 24 -18 84 0 62 3 74 18 78 9 3 -4 5 -30 6 l-46 1 -17
-50 c-9 -27 -20 -50 -25 -50 -5 0 -16 23 -25 50 l-17 50 -46 0 c-37 -1 -43 -3
-29 -11z"/>
<path d="M1223 449 c13 -8 17 -24 17 -79 0 -55 -4 -71 -17 -79 -14 -8 -5 -10
36 -11 48 0 52 2 37 13 -29 22 -17 60 21 68 42 8 63 26 63 53 0 37 -19 46 -99
46 -57 -1 -72 -3 -58 -11z m105 -30 c3 -27 -20 -55 -38 -44 -5 3 -10 22 -10
41 0 31 3 35 23 32 15 -2 23 -11 25 -29z"/>
<path d="M1466 452 c6 -4 13 -38 16 -76 5 -80 19 -96 83 -96 59 0 75 21 75 98
0 48 4 63 18 71 13 8 7 10 -28 10 -35 0 -41 -2 -27 -10 26 -15 25 -134 -2
-149 -48 -25 -71 2 -71 85 0 52 3 64 18 68 9 3 -8 5 -38 6 -30 0 -50 -3 -44
-7z"/>
</g>
</svg>
